<svg width="53" height="46" viewBox="0 0 53 46" version="1.1" xmlns="http://www.w3.org/2000/svg" xmlns:xlink="http://www.w3.org/1999/xlink">
<title>asset 1</title>
<desc>Created using Figma</desc>
<g id="Canvas" transform="translate(-12698 3768)">
<g id="asset 1">
<g id="Vector">
<use xlink:href="#path0_fill" transform="translate(12700.9 -3752.13)" fill="#554F51"/>
</g>
<g id="Vector">
<use xlink:href="#path1_fill" transform="translate(12700.9 -3742.91)" fill="#554F51"/>
</g>
<g id="Vector">
<use xlink:href="#path2_fill" transform="translate(12700.9 -3768)" fill="#554F51"/>
</g>
<g id="Vector">
<use xlink:href="#path3_fill" transform="translate(12698 -3737.65)" fill="#554F51"/>
</g>
<g id="Vector">
<use xlink:href="#path4_fill" transform="translate(12698 -3746.87)" fill="#554F51"/>
</g>
<g id="Vector">
<use xlink:href="#path5_fill" transform="translate(12698 -3756.08)" fill="#554F51"/>
</g>
<g id="Vector">
<use xlink:href="#path6_fill" transform="translate(12710.6 -3759)" fill="#554F51"/>
</g>
<g id="Vector">
<use xlink:href="#path7_fill" transform="translate(12710.6 -3748.62)" fill="#554F51"/>
</g>
<g id="Vector">
<use xlink:href="#path8_fill" transform="translate(12720.1 -3756.62)" fill="#554F51"/>
</g>
<g id="Vector">
<use xlink:href="#path9_fill" transform="translate(12720.1 -3746.54)" fill="#554F51"/>
</g>
<g id="Vector">
<use xlink:href="#path10_fill" transform="translate(12720.1 -3736.47)" fill="#554F51"/>
</g>
<g id="Vector">
<use xlink:href="#path11_fill" transform="translate(12709.7 -3739.64)" fill="#554F51"/>
</g>
<g id="Group">
<g id="Group">
<g id="Vector">
<use xlink:href="#path12_fill" transform="translate(12741.9 -3739.47)" fill="#554F51"/>
</g>
<g id="Vector">
<use xlink:href="#path13_fill" transform="translate(12749.3 -3741.97)" fill="#554F51"/>
</g>
<g id="Vector">
<use xlink:href="#path14_fill" transform="translate(12741.7 -3762.55)" fill="#554F51"/>
</g>
</g>
</g>
</g>
</g>
<defs>
<path id="path0_fill" d="M 2.19127 0L 0 0L 0 5.108L 2.19127 5.108L 2.19127 0Z"/>
<path id="path1_fill" d="M 2.19127 0L 0 0L 0 5.108L 2.19127 5.108L 2.19127 0Z"/>
<path id="path2_fill" d="M 38.5055 13.3003L 38.5055 4.04479C 38.5055 1.81221 36.7001 -9.39449e-08 34.4758 -9.39449e-08L 4.02975 -9.39449e-08C 1.80548 -9.39449e-08 -1.58144e-07 1.81221 -1.58144e-07 4.04479L -1.58144e-07 11.7531L 2.19297 11.7531L 2.19297 4.04479C 2.19297 3.02573 3.01448 2.20115 4.02975 2.20115L 34.4758 2.20115C 35.491 2.20115 36.3126 3.02573 36.3126 4.04479L 36.3126 32.6683L 36.3126 35.0868L 36.3126 39.7074C 36.3151 39.7048 36.3176 39.7023 36.3202 39.6997L 36.3202 41.9552C 36.3202 42.9743 35.491 43.7988 34.4758 43.7988L 4.02975 43.7988C 3.01448 43.7988 2.19297 42.9743 2.19297 41.9552L 2.19297 34.2707L -1.58144e-07 34.2707L -1.58144e-07 41.9552C -1.58144e-07 44.1801 1.80548 46 4.02975 46L 34.4758 46C 36.7001 46 38.5131 44.1801 38.5131 41.9552L 38.5131 37.5215L 38.5131 33.6245L 38.5131 13.3003L 38.5055 13.3003Z"/>
<path id="path3_fill" d="M 7.19821 3.73313C 8.22532 3.73313 9.05783 2.8975 9.05783 1.86656C 9.05783 0.835621 8.22532 3.62822e-07 7.19821 3.62822e-07C 6.51798 3.62822e-07 5.92406 0.367708 5.60002 0.915448L 0.950117 0.915448C 0.42641 0.915448 -2.2592e-08 1.34175 -2.2592e-08 1.86911C -2.2592e-08 2.39732 0.42641 2.81683 0.950117 2.81683L 5.60086 2.81683C 5.9249 3.36542 6.51798 3.73313 7.19821 3.73313Z"/>
<path id="path4_fill" d="M 0.950118 2.82277L 5.6034 2.82277C 5.92829 3.36712 6.51968 3.73313 7.19821 3.73313C 8.22532 3.73313 9.05783 2.8975 9.05783 1.86656C 9.05783 0.835622 8.22532 -6.47896e-07 7.19821 -6.47896e-07C 6.51968 -6.47896e-07 5.92829 0.366009 5.6034 0.910353L 0.950118 0.910353C 0.426411 0.910353 1.23176e-06 1.34005 1.23176e-06 1.86656C -0.00084482 2.39307 0.426411 2.82277 0.950118 2.82277Z"/>
<path id="path5_fill" d="M 0.950118 2.81768L 5.60087 2.81768C 5.9249 3.36542 6.51799 3.73313 7.19906 3.73313C 8.22617 3.73313 9.05868 2.8975 9.05868 1.86656C 9.05868 0.835622 8.22617 -3.88737e-08 7.19906 -3.88737e-08C 6.51883 -3.88737e-08 5.9249 0.367707 5.60087 0.915448L 0.950118 0.915448C 0.426411 0.915448 1.23176e-06 1.34175 1.23176e-06 1.86317C -0.00084482 2.39222 0.426411 2.81768 0.950118 2.81768Z"/>
<path id="path6_fill" d="M 0.332498 3.78597C 0.389184 3.88278 0.439947 3.97874 0.488172 4.07215C 0.543165 4.17915 0.602389 4.28785 0.698839 4.46194L 1.04487 5.10054C 1.10156 5.19735 1.15317 5.28822 1.2107 5.39947L 1.45859 5.85634C 1.55843 6.03637 1.74287 6.22914 1.92477 6.34379C 2.0796 6.44569 2.26488 6.49919 2.46117 6.49919C 2.8072 6.49919 3.17016 6.33445 3.41044 6.06695C 3.52465 5.93787 3.63802 5.80454 3.75055 5.67036L 3.98068 5.39862C 4.31487 4.99609 4.65329 4.59357 4.99425 4.19189L 6.17618 2.7873C 6.47399 2.43148 6.77011 2.07396 7.07976 1.71559L 7.43849 1.27655C 7.7693 0.92328 7.66523 0.510564 7.51379 0.319492C 7.24728 -0.0176447 6.83187 -0.100867 6.51629 0.131817C 6.27348 0.314397 6.05858 0.518207 5.84707 0.719469C 5.49934 1.04302 5.14654 1.36062 4.79119 1.67993L 4.40878 2.0332C 4.14904 2.27268 3.88846 2.51385 3.62449 2.75248L 2.54916 3.73501L 1.27923 2.39411C 1.07533 2.22852 0.892585 2.19625 0.698839 2.19879C 0.542319 2.22172 0.39003 2.28626 0.258892 2.39071C 0.0964496 2.53168 -1.67826e-07 2.73974 -1.67826e-07 2.96393C 0.0059222 3.09046 0.029612 3.20001 0.062608 3.2705L 0.332498 3.78597Z"/>
<path id="path7_fill" d="M 0.33419 3.78606C 0.390876 3.88287 0.441639 3.97883 0.489864 4.07224C 0.541473 4.17245 0.596467 4.2735 0.649769 4.36946L 1.04657 5.10063C 1.10325 5.19744 1.15486 5.28831 1.2107 5.39531L 1.46113 5.85558C 1.56012 6.03646 1.74541 6.22923 1.92731 6.34557C 2.08213 6.44663 2.26742 6.50098 2.4637 6.50098C 2.80974 6.50098 3.1727 6.33623 3.41297 6.06873C 3.52719 5.93965 3.64056 5.80633 3.75309 5.67215L 3.98321 5.4004C 4.31825 4.99788 4.65667 4.59535 4.99678 4.19283L 6.17956 2.78823C 6.47653 2.43242 6.77349 2.0749 7.0823 1.71653L 7.44103 1.27749C 7.77183 0.925069 7.66777 0.511503 7.51633 0.319582C 7.24813 -0.019253 6.83441 -0.0999285 6.51883 0.131906C 6.27602 0.314486 6.06112 0.518297 5.84961 0.71956C 5.50188 1.04311 5.14907 1.36071 4.79373 1.67917L 4.39609 2.04688C 4.14143 2.28211 3.88507 2.51819 3.62618 2.75257L 2.55085 3.73511L 1.28092 2.39505C 1.07618 2.22776 0.888355 2.18869 0.696302 2.19888C 0.540628 2.22266 0.388338 2.2872 0.258892 2.39081C 0.0964497 2.53177 -4.51841e-08 2.73983 -4.51841e-08 2.96402C 0.00592232 3.09055 0.0296121 3.2001 0.0626081 3.27059L 0.33419 3.78606Z"/>
<path id="path8_fill" d="M 1.1684 2.34552L 12.6536 2.34552C 13.2982 2.34552 13.822 1.81901 13.822 1.17276C 13.822 0.52651 13.2974 -4.79443e-07 12.6536 -4.79443e-07L 1.1684 -4.79443e-07C 0.523706 -4.79443e-07 -3.09834e-07 0.52651 -3.09834e-07 1.17276C -3.09834e-07 1.81901 0.524552 2.34552 1.1684 2.34552Z"/>
<path id="path9_fill" d="M 12.6536 4.79443e-07L 1.1684 4.79443e-07C 0.523706 4.79443e-07 -3.09834e-07 0.526509 -3.09834e-07 1.17276C -3.09834e-07 1.81901 0.524552 2.34552 1.1684 2.34552L 12.6536 2.34552C 13.2982 2.34552 13.822 1.81901 13.822 1.17276C 13.822 0.526509 13.2982 4.79443e-07 12.6536 4.79443e-07Z"/>
<path id="path10_fill" d="M 12.6536 -6.47896e-07L 1.1684 -6.47896e-07C 0.523706 -6.47896e-07 -3.09834e-07 0.52651 -3.09834e-07 1.17276C -3.09834e-07 1.81901 0.524552 2.34552 1.1684 2.34552L 12.6536 2.34552C 13.2982 2.34552 13.822 1.81901 13.822 1.17276C 13.822 0.52651 13.2982 -6.47896e-07 12.6536 -6.47896e-07Z"/>
<path id="path11_fill" d="M 4.33517 -1.1403e-06C 1.94507 -1.1403e-06 -3.29198e-07 1.95233 -3.29198e-07 4.3505C -3.29198e-07 6.74867 1.94507 8.70101 4.33517 8.70101C 6.72442 8.70101 8.66865 6.74867 8.66865 4.3505C 8.66865 1.95233 6.72442 -1.1403e-06 4.33517 -1.1403e-06ZM 7.04508 4.3505C 7.04508 5.85021 5.8293 7.07052 4.33517 7.07052C 2.8402 7.07052 1.62442 5.85021 1.62442 4.3505C 1.62442 2.84995 2.8402 1.62963 4.33517 1.62963C 5.82845 1.62963 7.04508 2.84995 7.04508 4.3505Z"/>
<path id="path12_fill" d="M 5.78107 6.13185C 5.77515 1.83655 5.754 4.45296 5.74216 0.10501C 3.77339 0.127938 1.94507 -0.0198227 0.0346869 0.00225676C 0.0287646 0.00820123 -1.52335e-06 0.0608531 -1.52335e-06 0.118599C 0.0203037 5.45164 0.0262271 3.99015 0.0922191 9.32319C 0.0939112 10.0926 0.299502 10.8908 0.562624 11.6186C 0.919658 12.6258 1.8207 13.0843 2.99418 13.0691C 4.1262 13.0606 5.02555 12.6436 5.34197 11.5065C 5.57802 10.6488 5.60425 9.7342 5.71762 8.84763C 5.73454 8.73723 5.73454 8.62004 5.73962 8.49776L 5.73877 8.11306L 5.78107 6.13185Z"/>
<path id="path13_fill" d="M 1.71386 11.5971C 1.7274 10.3207 1.71894 9.05622 1.72063 7.77901C 1.71471 5.52945 1.71979 3.27905 1.71386 1.02949C 1.71217 0.563272 1.57765 0.184524 1.0844 0.0401583C 0.66053 -0.0812788 0.306034 0.0775245 0.10975 0.451177C 0.00568532 0.660932 0.000610397 0.935225 0.00145645 1.1798C -0.00361986 3.60429 0.0056839 11.3567 0.0124523 11.6302C 0.0259891 12.2832 0.351721 12.6204 0.897424 12.5957C 1.37375 12.583 1.70371 12.1915 1.71386 11.5971Z"/>
<path id="path14_fill" d="M 5.97651 21.6129C 5.97651 21.6129 6.06281 8.35247 5.69731 6.48846C 5.69731 6.48846 5.04755 2.29336 3.7607 1.14862C 3.73701 1.10192 3.72009 1.07304 3.68456 1.05012L 3.70486 0.430193C 3.70994 0.307907 3.65748 0.19751 3.58218 0.12193C 3.51196 0.0522948 3.4189 0.00558774 3.30891 0.000492477C 3.08809 -0.0105473 2.89096 0.16524 2.87996 0.397923L 2.86558 0.966044C 2.77843 1.00681 2.70314 1.05946 2.63376 1.11805C 1.31307 2.22882 0.551627 6.39844 0.551627 6.39844C 0.138754 8.25311 8.00403e-07 21.5076 8.00403e-07 21.5076L 2.96711 21.5755C 2.99164 21.5976 5.97651 21.6129 5.97651 21.6129Z"/>
</defs>
</svg>
